<svg width="32" height="30" viewBox="0 0 32 30" fill="none" xmlns="http://www.w3.org/2000/svg">
<path d="M13.3918 26.7858C13.665 26.7858 13.9275 26.7858 14.2168 26.7536L13.5418 25.5911C13.3599 25.2625 13.2989 24.8805 13.3694 24.5116C13.4399 24.1426 13.6373 23.81 13.9275 23.5715H13.3918C11.398 23.5696 9.44867 22.9822 7.78579 21.8822C6.12291 20.7822 4.8197 19.218 4.03795 17.3839C3.2562 15.5497 3.03032 13.5264 3.38837 11.565C3.74641 9.60366 4.6726 7.79063 6.05197 6.351C7.43134 4.91138 9.20314 3.90856 11.1474 3.46703C13.0917 3.0255 15.1228 3.16471 16.9887 3.86737C18.8546 4.57004 20.473 5.80521 21.643 7.41957C22.8131 9.03393 23.4833 10.9564 23.5704 12.9482C23.8542 13.0459 24.105 13.2212 24.2944 13.4541C24.4838 13.687 24.6041 13.9683 24.6418 14.2661L24.8882 16.2375L26.6132 15.5358C27.0517 12.8305 26.6497 10.0559 25.4616 7.58634C24.2734 5.11678 22.3562 3.07116 19.9688 1.72556C17.5814 0.379959 14.8386 -0.200845 12.1107 0.0615327C9.38271 0.323911 6.80092 1.41684 4.71373 3.19282C2.62653 4.9688 1.1344 7.34233 0.438711 9.99309C-0.256977 12.6438 -0.122731 15.4442 0.823331 18.0163C1.76939 20.5883 3.48173 22.8082 5.72924 24.3764C7.97675 25.9446 10.6512 26.7855 13.3918 26.7858Z" fill="#2E2E38"/>
<path d="M14.6134 16.484C14.7545 16.2395 14.9576 16.0366 15.2021 15.8955C15.4466 15.7544 15.7239 15.6803 16.0062 15.6804C16.2122 15.6837 16.4157 15.7255 16.6062 15.8036L18.4652 16.6072L18.7491 14.2661C18.7977 13.8751 18.9882 13.5156 19.2845 13.2558C19.5808 12.9961 19.9622 12.8542 20.3562 12.8572H22.4991C22.3945 11.0826 21.7728 9.37731 20.7107 7.95175C19.6486 6.52619 18.1924 5.44266 16.5219 4.83477C14.8513 4.22687 13.0393 4.12121 11.3094 4.5308C9.57952 4.94038 8.00731 5.84731 6.78668 7.13975C5.56604 8.43219 4.75036 10.0536 4.44021 11.8041C4.13006 13.5546 4.33901 15.3575 5.0413 16.9907C5.74358 18.6238 6.90848 20.0157 8.39236 20.9947C9.87624 21.9737 11.6142 22.497 13.3919 22.5001C14.1028 22.502 14.8113 22.4193 15.5026 22.2537L13.6973 20.8929C13.385 20.6568 13.1697 20.3147 13.0918 19.931C13.0138 19.5473 13.0787 19.1483 13.2741 18.809L14.6134 16.484ZM12.8562 13.9286C12.7141 13.9286 12.5779 13.8722 12.4774 13.7717C12.3769 13.6713 12.3205 13.535 12.3205 13.3929V5.89291C12.3205 5.75083 12.3769 5.61457 12.4774 5.5141C12.5779 5.41364 12.7141 5.3572 12.8562 5.3572C12.9983 5.3572 13.1346 5.41364 13.235 5.5141C13.3355 5.61457 13.3919 5.75083 13.3919 5.89291V12.8572H17.6777C17.8197 12.8572 17.956 12.9137 18.0565 13.0141C18.1569 13.1146 18.2134 13.2508 18.2134 13.3929C18.2134 13.535 18.1569 13.6713 18.0565 13.7717C17.956 13.8722 17.8197 13.9286 17.6777 13.9286H12.8562Z" fill="#2E2E38"/>
<path d="M27.449 16.3285L24.824 17.4375C24.5294 17.2503 24.2172 17.0924 23.8919 16.966L23.5705 14.3946C23.5535 14.2649 23.4896 14.1459 23.3909 14.0601C23.2922 13.9742 23.1656 13.9274 23.0348 13.9285H20.3562C20.2246 13.9276 20.0972 13.9751 19.9984 14.0621C19.8996 14.149 19.8363 14.2693 19.8205 14.4L19.4669 17.2339C19.16 17.3948 18.8694 17.585 18.599 17.8017L16.2097 16.7946C16.0898 16.7445 15.9558 16.7397 15.8326 16.7811C15.7094 16.8225 15.6054 16.9073 15.5401 17.0196L14.2008 19.3393C14.135 19.4523 14.1128 19.5856 14.1385 19.7139C14.1641 19.8422 14.2358 19.9566 14.3401 20.0357L16.6062 21.75C16.6062 21.8214 16.6062 21.8928 16.6062 21.9643C16.6074 22.2424 16.6307 22.5201 16.6758 22.7946L14.6133 24.3589C14.5091 24.438 14.4373 24.5524 14.4117 24.6807C14.386 24.809 14.4082 24.9423 14.474 25.0553L15.8133 27.375C15.8786 27.4873 15.9826 27.5721 16.1058 27.6135C16.229 27.6549 16.363 27.6501 16.483 27.6L19.108 26.4911C19.4026 26.6782 19.7148 26.8361 20.0401 26.9625L20.3615 29.5286C20.3772 29.6583 20.4398 29.7778 20.5375 29.8647C20.6351 29.9515 20.7612 29.9996 20.8919 30H23.5705C23.7021 30.0009 23.8294 29.9534 23.9282 29.8665C24.0271 29.7795 24.0904 29.6592 24.1062 29.5286L24.4598 26.7C24.7688 26.5378 25.0613 26.3458 25.333 26.1268L27.7223 27.1339C27.8422 27.184 27.9762 27.1888 28.0994 27.1474C28.2226 27.106 28.3266 27.0213 28.3919 26.9089L29.7312 24.5893C29.797 24.4762 29.8192 24.3429 29.7935 24.2146C29.7679 24.0864 29.6962 23.9719 29.5919 23.8928L27.3205 22.1785C27.3205 22.1071 27.3205 22.0357 27.3205 21.9643C27.3193 21.6861 27.296 21.4084 27.2508 21.1339L29.3133 19.5696C29.4176 19.4906 29.4893 19.3761 29.515 19.2478C29.5406 19.1195 29.5185 18.9862 29.4526 18.8732L28.1133 16.5535C28.0482 16.4424 27.9451 16.3585 27.8231 16.3172C27.7011 16.2759 27.5683 16.2799 27.449 16.3285ZM21.9633 24.1071C21.5395 24.1071 21.1252 23.9814 20.7728 23.746C20.4204 23.5105 20.1458 23.1759 19.9836 22.7843C19.8214 22.3927 19.779 21.9619 19.8616 21.5462C19.9443 21.1305 20.1484 20.7487 20.4481 20.449C20.7478 20.1493 21.1296 19.9453 21.5453 19.8626C21.9609 19.7799 22.3918 19.8223 22.7834 19.9845C23.1749 20.1467 23.5096 20.4214 23.745 20.7737C23.9805 21.1261 24.1062 21.5404 24.1062 21.9643C24.1062 22.5326 23.8804 23.0776 23.4786 23.4795C23.0767 23.8814 22.5316 24.1071 21.9633 24.1071Z" fill="#2E2E38"/>
<path d="M27.0064 9.01259C29.4952 9.01259 31.5127 6.99506 31.5127 4.5063C31.5127 2.01754 29.4952 0 27.0064 0C24.5177 0 22.5001 2.01754 22.5001 4.5063C22.5001 6.99506 24.5177 9.01259 27.0064 9.01259Z" fill="#56C55B"/>
</svg>
