<svg width="31" height="30" viewBox="0 0 31 30" fill="none" xmlns="http://www.w3.org/2000/svg">
<path d="M20.749 9.70386H18.6917V2.2266H5.31161C7.04367 3.23736 8.42826 4.11862 9.88199 4.86336C10.806 5.33856 11.1125 5.97666 11.1043 6.99679C11.0627 11.6199 11.0861 16.2442 11.0861 20.8679C11.0861 21.4433 11.0861 22.0187 11.0861 22.672H18.6272V16.9046H20.7425C20.7425 19.229 20.7759 21.5042 20.7261 23.7777C20.7062 24.693 20.0189 24.9098 19.2214 24.9051C17.0534 24.8928 14.8854 24.8998 12.7139 24.8992H11.0791C11.0791 26.1953 11.1142 27.3895 11.0697 28.5801C11.0181 29.9606 10.3449 30.3509 9.15718 29.6788C6.37686 28.1055 3.59654 26.5311 0.867201 24.8705C0.44239 24.6121 0.0468757 23.9008 0.0433601 23.3957C-0.00703136 16.079 0.0181643 8.76166 0 1.44436C0 0.3961 0.468757 0 1.45139 0C7.38351 0.0109377 13.3154 0.0126955 19.2472 0.00527352C20.0411 0.00527352 20.7238 0.210941 20.7355 1.14201C20.7724 3.95807 20.749 6.77472 20.749 9.70386Z" fill="#2E2E38"/>
<path d="M22.9246 14.7893C21.1158 14.7893 19.4886 14.8016 17.8626 14.7852C16.5032 14.7717 15.7256 14.1992 15.8288 13.2436C15.9565 12.0541 16.7932 11.7676 17.8321 11.7787C19.4628 11.7957 21.0935 11.7834 22.9228 11.7834C22.9228 10.9683 22.8988 10.2254 22.9287 9.48472C22.9726 8.39603 23.3834 8.12767 24.2178 8.71537C26.0277 9.99449 27.7985 11.3316 29.578 12.6553C30.1382 13.0719 30.1505 13.5301 29.578 13.952C27.758 15.2956 25.9451 16.6514 24.1017 17.9587C23.34 18.5001 22.958 18.0981 22.9298 17.2661C22.9052 16.5096 22.9246 15.7514 22.9246 14.7893Z" fill="#2E2E38"/>
</svg>
