<svg width="31" height="30" viewBox="0 0 31 30" fill="none" xmlns="http://www.w3.org/2000/svg">
<path d="M19.8593 0C14.4191 0 9.92964 4.2782 9.66562 9.66562C4.27809 9.92952 0 14.3661 0 19.8064C0 25.405 4.59514 30 10.1936 30H25.986C28.2573 30 30.1058 28.1514 30.1058 25.9331V10.1938C30.1058 4.54234 25.5107 0 19.8593 0ZM8.92615 25.5107C6.81345 24.9827 5.12329 23.2924 4.59514 21.2325C4.54222 20.9685 4.54222 20.8629 4.48942 20.5986H8.92615V25.5108V25.5107ZM14.3134 25.6692H10.141V16.0565H14.3134V25.6692ZM19.9649 25.6692H15.7924V8.13375H19.9649V25.6692ZM25.6164 24.8241C25.6164 25.2995 25.2467 25.722 24.7713 25.722H21.391V11.5142H25.6164V24.8241Z" fill="#2E2E38"/>
</svg>
