<svg width="29" height="30" viewBox="0 0 29 30" fill="none" xmlns="http://www.w3.org/2000/svg">
<path d="M26.8575 24.451L26.551 24.1806C25.6817 23.4061 24.9208 22.5179 24.2889 21.54C23.5987 20.1904 23.1851 18.7165 23.0722 17.2049V12.7527C23.0781 10.3784 22.2169 8.08372 20.6503 6.29968C19.0836 4.51564 16.9194 3.36509 14.5643 3.06419V1.90157C14.5643 1.58247 14.4375 1.27644 14.2119 1.0508C13.9863 0.825158 13.6802 0.698395 13.3611 0.698395C13.042 0.698395 12.736 0.825158 12.5104 1.0508C12.2847 1.27644 12.158 1.58247 12.158 1.90157V3.08222C9.82393 3.4048 7.68589 4.56231 6.13984 6.34036C4.59378 8.1184 3.74448 10.3965 3.74923 12.7527V17.2049C3.63635 18.7165 3.22269 20.1904 2.53253 21.54C1.91146 22.5154 1.1628 23.4035 0.306427 24.1806L0 24.451V26.9926H26.8575V24.451Z" fill="#2E2E38"/>
<path d="M11.0585 27.939C11.1375 28.5102 11.4206 29.0336 11.8554 29.4125C12.2903 29.7913 12.8475 30 13.4243 30C14.001 30 14.5582 29.7913 14.9931 29.4125C15.428 29.0336 15.711 28.5102 15.7901 27.939H11.0585Z" fill="#2E2E38"/>
<path d="M13.4738 29.9938C14.0416 29.9807 14.5864 29.7673 15.0119 29.3913C15.4375 29.0152 15.7163 28.5008 15.7991 27.939H11.0585C11.1436 28.516 11.4355 29.0426 11.8798 29.4205C12.3241 29.7985 12.8906 30.0023 13.4738 29.9938Z" fill="#2E2E38"/>
<path d="M24.0063 9.76257C26.495 9.76257 28.5126 7.74504 28.5126 5.25628C28.5126 2.76753 26.495 0.75 24.0063 0.75C21.5175 0.75 19.5 2.76753 19.5 5.25628C19.5 7.74504 21.5175 9.76257 24.0063 9.76257Z" fill="#56C55B"/>
</svg>
