<svg width="29" height="30" viewBox="0 0 29 30" fill="none" xmlns="http://www.w3.org/2000/svg">
<path fill-rule="evenodd" clip-rule="evenodd" d="M3.75 0C2.75544 0 1.80161 0.395088 1.09835 1.09835C0.395088 1.80161 0 2.75544 0 3.75V26.25C0 27.2446 0.395088 28.1984 1.09835 28.9016C1.80161 29.6049 2.75544 30 3.75 30H24.375C25.3696 30 26.3234 29.6049 27.0266 28.9016C27.7299 28.1984 28.125 27.2446 28.125 26.25V3.75C28.125 2.75544 27.7299 1.80161 27.0266 1.09835C26.3234 0.395088 25.3696 0 24.375 0L3.75 0ZM13.125 3.75C12.6277 3.75 12.1508 3.94754 11.7992 4.29917C11.4475 4.65081 11.25 5.12772 11.25 5.625V11.25C11.25 11.7473 11.4475 12.2242 11.7992 12.5758C12.1508 12.9275 12.6277 13.125 13.125 13.125H15C15.4973 13.125 15.9742 12.9275 16.3258 12.5758C16.6775 12.2242 16.875 11.7473 16.875 11.25V5.625C16.875 5.12772 16.6775 4.65081 16.3258 4.29917C15.9742 3.94754 15.4973 3.75 15 3.75H13.125ZM3.75 5.625C3.75 5.12772 3.94754 4.65081 4.29917 4.29917C4.65081 3.94754 5.12772 3.75 5.625 3.75H7.5C7.99728 3.75 8.47419 3.94754 8.82582 4.29917C9.17746 4.65081 9.375 5.12772 9.375 5.625V18.75C9.375 19.2473 9.17746 19.7242 8.82582 20.0758C8.47419 20.4275 7.99728 20.625 7.5 20.625H5.625C5.12772 20.625 4.65081 20.4275 4.29917 20.0758C3.94754 19.7242 3.75 19.2473 3.75 18.75V5.625ZM20.625 3.75C20.1277 3.75 19.6508 3.94754 19.2992 4.29917C18.9475 4.65081 18.75 5.12772 18.75 5.625V24.375C18.75 24.8723 18.9475 25.3492 19.2992 25.7008C19.6508 26.0525 20.1277 26.25 20.625 26.25H22.5C22.9973 26.25 23.4742 26.0525 23.8258 25.7008C24.1775 25.3492 24.375 24.8723 24.375 24.375V5.625C24.375 5.12772 24.1775 4.65081 23.8258 4.29917C23.4742 3.94754 22.9973 3.75 22.5 3.75H20.625Z" fill="black"/>
</svg>
